{"title":"The Rachel Maddow Show 2013.01.04 - SDTV -  XviD","uid":7989389,"size":340824064,"categoryP":"video","categoryS":"tv_shows","magnet":"?xt=urn:btih:fe21b68399c64c813a274aaf7aac9120db29a4fe&amp;dn=The+Rachel+Maddow+Show+2013.01.04+-+SDTV+-++XviD&amp;tr=udp%3A%2F%2Ftracker.openbittorrent.com%3A80&amp;tr=udp%3A%2F%2Fopen.demonii.com%3A1337&amp;tr=udp%3A%2F%2Ftracker.coppersurfer.tk%3A6969&amp;tr=udp%3A%2F%2Fexodus.desync.com%3A6969","seeders":1,"leechers":0,"uploader":"tunamoon","files":1,"time":1357376166,"description":"The Rachel Maddow Show  - Jan 4 - 2013\nThis is a daily (Mon - Fri) show on the political scene in the U.S\n\n.\nSDTV rip - Not HD\n.\nVideo                            : 44mn 1s\nID                               : 0\nFormat                           : MPEG-4 Visual\nFormat profile                   : Advanced Simple@L5\nFormat settings, BVOP            : 1\nFormat settings, QPel            : No\nFormat settings, GMC             : No warppoints\nFormat settings, Matrix          : Custom\nCodec ID                         : XVID\nCodec ID/Hint                    : XviD\nDuration                         : 44mn 1s\nBit rate                         : 896 Kbps\nWidth                            : 624 pixels\nHeight                           : 352 pixels\nDisplay aspect ratio             : 16:9\nFrame rate                       : 29.970 fps\nColor space                      : YUV\nChroma subsampling               : 4:2:0\nBit depth                        : 8 bits\nScan type                        : Progressive\nCompression mode                 : Lossy\nBits/(Pixel*Frame)               : 0.136\nStream size                      : 282 MiB (87%)\nWriting library                  : XviD 1.2.1 (UTC 2008-12-04)\n\nAudio\nID                               : 1\nFormat                           : MPEG Audio\nFormat version                   : Version 1\nFormat profile                   : Layer 3\nMode                             : Joint stereo\nMode extension                   : MS Stereo\nCodec ID                         : 55\nCodec ID/Hint                    : MP3\nDuration                         : 44mn 1s\nBit rate mode                    : Constant\nBit rate                         : 128 Kbps\nChannel(s)                       : 2 channels\nSampling rate                    : 48.0 KHz\nCompression mode                 : Lossy\nStream size                      : 40.3 MiB (12%)\nAlignment                        : Aligned on interleaves\nInterleave, duration             : 67 ms (2.00 video frames)\nInterleave, preload duration     : 504 ms\nWriting library                  : LAME3.98r\nEncoding settings                : -m j -V 4 -q 2 -lowpass 17 -b 128","torrent":{"xt":"urn:btih:fe21b68399c64c813a274aaf7aac9120db29a4fe","amp;dn":"The+Rachel+Maddow+Show+2013.01.04+-+SDTV+-++XviD","amp;tr":["udp%3A%2F%2Ftracker.openbittorrent.com%3A80","udp%3A%2F%2Fopen.demonii.com%3A1337","udp%3A%2F%2Ftracker.coppersurfer.tk%3A6969","udp%3A%2F%2Fexodus.desync.com%3A6969"],"infoHash":"fe21b68399c64c813a274aaf7aac9120db29a4fe","infoHashBuffer":{"type":"Buffer","data":[254,33,182,131,153,198,76,129,58,39,74,175,122,172,145,32,219,41,164,254]},"announce":[],"urlList":[]}}